<svg xmlns="http://www.w3.org/2000/svg" viewBox="0 0 688.6 512">
    <path d="M676.5 80.2h-68.1V12a12 12 0 0 0-12-12h-24.2a12 12 0 0 0-12 12v68.2H492a12 12 0 0 0-12 12v24a12 12 0 0 0 12 12h68.2v68.2a12 12 0 0 0 12 12h24a12 12 0 0 0 12-12v-68h68.2a12 12 0 0 0 12-12V92.2a12 12 0 0 0-11.9-12M466.3 286.7a95 95 0 0 0 13.7-49.9 87 87 0 0 0-85.8-85.5h-36.5a128 128 0 0 0 8.9-46.6C366.6 32 328.9 0 271.3 0c-61.6 0-58.1 95-71.8 108.6-22.7 22.7-49.6 66.4-68.7 83.4H32a32 32 0 0 0-32 32v240a32 32 0 0 0 32 32h64a32 32 0 0 0 31-24c44.5 1 75 40 177.8 40H327c77.1 0 112-39.5 113-95.4a96 96 0 0 0 17.3-67 93 93 0 0 0 9-63m-61.8 53.8c12.6 21.1 1.3 49.4-14 57.6 7.8 48.7-17.5 65.9-53 65.9h-37.9C228 464 181.6 426 128 426V240h11c28.3 0 68-70.9 94.5-97.5 28.3-28.3 18.9-75.6 37.8-94.5 47.2 0 47.2 33 47.2 56.7 0 39.2-28.3 56.8-28.3 94.6h104c21.1 0 37.7 18.9 37.8 37.8s-12.8 37.8-22.3 37.8c13.5 14.6 16.4 45.2-5.2 65.6ZM88 432a24 24 0 1 1-24-24 24 24 0 0 1 24 24" fill="#010101"/>
</svg>
